<mxfile host="app.diagrams.net" modified="2024-06-13T12:28:51.966Z" agent="Mozilla/5.0 (Windows NT 10.0; Win64; x64; rv:126.0) Gecko/20100101 Firefox/126.0" etag="NMVJMoz7ai4vR5NWYliW" version="24.3.1" type="github">
  <diagram name="Page-1" id="dSjuG9kYuQEU8eFkGPQz">
    <mxGraphModel dx="1467" dy="783" grid="1" gridSize="10" guides="1" tooltips="1" connect="1" arrows="1" fold="1" page="1" pageScale="1" pageWidth="1169" pageHeight="827" math="0" shadow="0">
      <root>
        <mxCell id="0" />
        <mxCell id="1" parent="0" />
        <object label="" StepExec="" id="tpLD_pQavbhY24I1Bd5x-26">
          <mxCell style="rounded=0;whiteSpace=wrap;html=1;align=left;fontSize=20;" parent="1" vertex="1">
            <mxGeometry x="590" y="122" width="491" height="440" as="geometry" />
          </mxCell>
        </object>
        <mxCell id="nsqzxSazTp6Y2iTqBPRA-5" value="" style="rounded=1;whiteSpace=wrap;html=1;direction=south;" vertex="1" parent="1">
          <mxGeometry x="870" y="140" width="170" height="410" as="geometry" />
        </mxCell>
        <mxCell id="tpLD_pQavbhY24I1Bd5x-3" value="" style="edgeStyle=orthogonalEdgeStyle;rounded=0;orthogonalLoop=1;jettySize=auto;html=1;entryX=0;entryY=0.5;entryDx=0;entryDy=0;fontSize=20;" parent="1" source="tpLD_pQavbhY24I1Bd5x-1" target="tpLD_pQavbhY24I1Bd5x-19" edge="1">
          <mxGeometry relative="1" as="geometry">
            <mxPoint x="410" y="370" as="targetPoint" />
          </mxGeometry>
        </mxCell>
        <mxCell id="tpLD_pQavbhY24I1Bd5x-18" value="" style="edgeStyle=orthogonalEdgeStyle;rounded=0;orthogonalLoop=1;jettySize=auto;html=1;fontSize=20;" parent="1" source="tpLD_pQavbhY24I1Bd5x-17" target="tpLD_pQavbhY24I1Bd5x-1" edge="1">
          <mxGeometry relative="1" as="geometry" />
        </mxCell>
        <mxCell id="nsqzxSazTp6Y2iTqBPRA-2" value="" style="edgeStyle=none;rounded=0;orthogonalLoop=1;jettySize=auto;html=1;" edge="1" parent="1" source="tpLD_pQavbhY24I1Bd5x-1" target="nsqzxSazTp6Y2iTqBPRA-1">
          <mxGeometry relative="1" as="geometry" />
        </mxCell>
        <mxCell id="tpLD_pQavbhY24I1Bd5x-1" value="&lt;div&gt;BulkAction&lt;/div&gt;&lt;div&gt;Job&lt;br&gt;&lt;/div&gt;" style="whiteSpace=wrap;html=1;aspect=fixed;fontSize=20;" parent="1" vertex="1">
          <mxGeometry x="230" y="300" width="120" height="120" as="geometry" />
        </mxCell>
        <mxCell id="tpLD_pQavbhY24I1Bd5x-6" value="Wait" style="whiteSpace=wrap;html=1;aspect=fixed;fontSize=20;" parent="1" vertex="1">
          <mxGeometry x="920" y="180" width="80" height="80" as="geometry" />
        </mxCell>
        <mxCell id="tpLD_pQavbhY24I1Bd5x-8" value="Comm" style="whiteSpace=wrap;html=1;aspect=fixed;fontSize=20;" parent="1" vertex="1">
          <mxGeometry x="920" y="320" width="80" height="80" as="geometry" />
        </mxCell>
        <mxCell id="tpLD_pQavbhY24I1Bd5x-9" value="Reward" style="whiteSpace=wrap;html=1;aspect=fixed;fontSize=20;" parent="1" vertex="1">
          <mxGeometry x="920" y="450" width="80" height="80" as="geometry" />
        </mxCell>
        <mxCell id="tpLD_pQavbhY24I1Bd5x-17" value="&lt;div style=&quot;font-size: 20px;&quot;&gt;Job&lt;/div&gt;&lt;div style=&quot;font-size: 20px;&quot;&gt;&amp;nbsp;Launcher&lt;/div&gt;&lt;div style=&quot;font-size: 20px;&quot;&gt;&lt;br style=&quot;font-size: 20px;&quot;&gt;&lt;/div&gt;" style="whiteSpace=wrap;html=1;aspect=fixed;fontSize=20;" parent="1" vertex="1">
          <mxGeometry x="50" y="320" width="80" height="80" as="geometry" />
        </mxCell>
        <mxCell id="tpLD_pQavbhY24I1Bd5x-24" style="edgeStyle=none;rounded=0;orthogonalLoop=1;jettySize=auto;html=1;exitX=1;exitY=0.5;exitDx=0;exitDy=0;entryX=0;entryY=0.5;entryDx=0;entryDy=0;fontSize=20;" parent="1" source="tpLD_pQavbhY24I1Bd5x-19" target="tpLD_pQavbhY24I1Bd5x-8" edge="1">
          <mxGeometry relative="1" as="geometry" />
        </mxCell>
        <mxCell id="tpLD_pQavbhY24I1Bd5x-25" style="edgeStyle=none;rounded=0;orthogonalLoop=1;jettySize=auto;html=1;exitX=1;exitY=0.5;exitDx=0;exitDy=0;entryX=0;entryY=0.5;entryDx=0;entryDy=0;fontSize=20;" parent="1" source="tpLD_pQavbhY24I1Bd5x-19" target="tpLD_pQavbhY24I1Bd5x-9" edge="1">
          <mxGeometry relative="1" as="geometry" />
        </mxCell>
        <mxCell id="tpLD_pQavbhY24I1Bd5x-19" value="&lt;div style=&quot;font-size: 20px;&quot;&gt;getData&lt;/div&gt;&lt;div style=&quot;font-size: 20px;&quot;&gt;&lt;font style=&quot;font-size: 16px;&quot;&gt;(groupByStepType)&lt;/font&gt;&lt;/div&gt;" style="whiteSpace=wrap;html=1;aspect=fixed;fontSize=20;" parent="1" vertex="1">
          <mxGeometry x="650" y="290" width="140" height="140" as="geometry" />
        </mxCell>
        <mxCell id="tpLD_pQavbhY24I1Bd5x-23" style="rounded=0;orthogonalLoop=1;jettySize=auto;html=1;exitX=1;exitY=0.5;exitDx=0;exitDy=0;entryX=-0.012;entryY=0.613;entryDx=0;entryDy=0;entryPerimeter=0;fontSize=20;" parent="1" source="tpLD_pQavbhY24I1Bd5x-19" target="tpLD_pQavbhY24I1Bd5x-6" edge="1">
          <mxGeometry relative="1" as="geometry" />
        </mxCell>
        <mxCell id="tpLD_pQavbhY24I1Bd5x-27" value="&lt;div&gt;Update Bdna / History&lt;/div&gt;" style="rounded=0;whiteSpace=wrap;html=1;fontSize=20;" parent="1" vertex="1">
          <mxGeometry x="450" y="630" width="410" height="180" as="geometry" />
        </mxCell>
        <mxCell id="tpLD_pQavbhY24I1Bd5x-31" value="&lt;h1 style=&quot;line-height: 0%; padding-top: 0px; padding-left: 0px; font-size: 38px;&quot; align=&quot;left&quot;&gt;&lt;font style=&quot;font-size: 38px;&quot; face=&quot;Helvetica&quot;&gt;StepExec&lt;/font&gt;&lt;/h1&gt;&lt;h1 style=&quot;margin-top: 0px;&quot;&gt;&lt;/h1&gt;" style="text;html=1;whiteSpace=wrap;overflow=hidden;rounded=0;fontSize=20;" parent="1" vertex="1">
          <mxGeometry x="605" y="145" width="215" height="55" as="geometry" />
        </mxCell>
        <mxCell id="nsqzxSazTp6Y2iTqBPRA-3" value="" style="edgeStyle=none;rounded=0;orthogonalLoop=1;jettySize=auto;html=1;" edge="1" parent="1" source="nsqzxSazTp6Y2iTqBPRA-1" target="tpLD_pQavbhY24I1Bd5x-27">
          <mxGeometry relative="1" as="geometry" />
        </mxCell>
        <mxCell id="nsqzxSazTp6Y2iTqBPRA-1" value="&lt;div&gt;Update&lt;/div&gt;&lt;div&gt;Job&lt;br&gt;&lt;/div&gt;" style="whiteSpace=wrap;html=1;aspect=fixed;fontSize=20;" vertex="1" parent="1">
          <mxGeometry x="230" y="660" width="120" height="120" as="geometry" />
        </mxCell>
        <mxCell id="nsqzxSazTp6Y2iTqBPRA-7" style="edgeStyle=none;rounded=0;orthogonalLoop=1;jettySize=auto;html=1;" edge="1" parent="1" source="nsqzxSazTp6Y2iTqBPRA-6" target="nsqzxSazTp6Y2iTqBPRA-5">
          <mxGeometry relative="1" as="geometry" />
        </mxCell>
        <mxCell id="nsqzxSazTp6Y2iTqBPRA-6" value="&lt;div style=&quot;font-size: 13px;&quot;&gt;&lt;font style=&quot;font-size: 19px;&quot;&gt;Split Process&lt;/font&gt;&lt;/div&gt;" style="text;html=1;align=center;verticalAlign=middle;whiteSpace=wrap;rounded=0;" vertex="1" parent="1">
          <mxGeometry x="885" y="145" width="145" height="30" as="geometry" />
        </mxCell>
        <mxCell id="nsqzxSazTp6Y2iTqBPRA-8" value="&lt;font style=&quot;font-size: 25px;&quot;&gt;Update Jobs Aftet the Exec&lt;br&gt;&lt;/font&gt;" style="text;html=1;align=center;verticalAlign=middle;whiteSpace=wrap;rounded=0;" vertex="1" parent="1">
          <mxGeometry x="110" y="460" width="170" height="160" as="geometry" />
        </mxCell>
      </root>
    </mxGraphModel>
  </diagram>
</mxfile>
